<svg width="695" height="208" viewBox="0 0 695 208" fill="none" xmlns="http://www.w3.org/2000/svg">
<path d="M492.986 0.932859C611.384 17.4459 693.533 54.1608 693.729 97.1764C693.999 156.346 539.005 205.036 347.541 205.908C158.522 206.747 4.61803 160.696 0.452695 102.587C23.6384 151.321 156.366 188.16 316.493 187.431C492.795 186.629 649.431 140.52 649.176 84.5223C649.016 49.3752 578.597 18.7223 493.007 0.911887L492.986 0.932859Z" fill="#007BB6"/>
<path d="M56.5571 125.397L516.508 123.303C570.642 123.057 614.562 106.247 614.455 82.8423L614.452 82.0782C614.345 58.673 570.356 39.8914 516.129 40.1383L154.215 41.7861C100.081 42.0325 56.2649 61.2139 56.3714 84.619L56.5571 125.397Z" fill="#00B0E3"/>
<path d="M94.7445 68.8979L102.484 68.8627L116.414 82.7154L130.218 68.7364L137.957 68.7012L138.131 106.86L130.392 106.895L130.267 79.4541L116.46 92.8716L102.533 79.5804L102.657 107.021L94.9183 107.057L94.7445 68.8979ZM148.821 68.6517L181.316 68.5038L181.347 75.2908L156.591 75.4035L156.626 83.0206L178.549 82.9208L178.578 89.2928L156.655 89.3927L156.703 100.013L181.972 99.8976L182.002 106.66L148.995 106.811L148.821 68.6517ZM190.422 68.4623L204.411 68.3986C208.497 68.38 212.047 68.8033 215.062 69.6685C218.077 70.5337 220.573 71.7838 222.55 73.4187C224.543 75.0372 226.025 77.0161 226.996 79.3555C227.983 81.6785 228.483 84.2967 228.496 87.2101C228.509 89.977 228.04 92.5426 227.091 94.907C226.141 97.2551 224.686 99.2962 222.724 101.03C220.763 102.748 218.278 104.102 215.272 105.093C212.265 106.067 208.719 106.563 204.634 106.582L190.596 106.621L190.422 68.4623ZM206.459 99.8594C208.77 99.8488 210.795 99.5467 212.534 98.9528C214.273 98.3427 215.717 97.4897 216.868 96.394C218.035 95.2982 218.908 93.9758 219.487 92.4269C220.066 90.8781 220.351 89.1515 220.342 87.2472C220.334 85.3755 220.033 83.6923 219.44 82.1975C218.847 80.6866 217.963 79.4129 216.786 78.3766C215.626 77.3239 214.173 76.5167 212.429 75.955C210.685 75.3933 208.657 75.1177 206.346 75.1282L198.192 75.1653L198.305 99.8965L206.459 99.8594ZM235.197 68.2585L242.985 68.223L243.159 106.382L235.371 106.417L235.197 68.2585ZM250.639 87.036C250.627 84.318 251.128 81.7847 252.143 79.4363C253.157 77.0717 254.629 75.0223 256.558 73.2882C258.503 71.5378 260.873 70.1598 263.668 69.1543C266.48 68.1486 269.659 67.6377 273.207 67.6215C276.316 67.6074 279.166 67.9118 281.757 68.5348C284.363 69.1414 286.785 70.0825 289.02 71.3582L285.483 77.2337C284.813 76.7973 284.039 76.4102 283.158 76.0724C282.294 75.7346 281.365 75.454 280.371 75.2306C279.393 74.9909 278.375 74.8084 277.317 74.683C276.274 74.5575 275.241 74.4971 274.215 74.5018C271.741 74.5131 269.537 74.8323 267.603 75.4596C265.669 76.0707 264.037 76.9326 262.708 78.0454C261.394 79.1419 260.391 80.4567 259.698 81.9898C259.022 83.5066 258.688 85.1764 258.696 86.9993C258.704 88.8873 259.07 90.6191 259.794 92.1946C260.517 93.7701 261.557 95.1326 262.913 96.282C264.285 97.4151 265.95 98.3027 267.906 98.9448C269.878 99.5706 272.101 99.8779 274.575 99.8666C275.698 99.8615 276.812 99.7751 277.918 99.6073C279.024 99.4395 280.09 99.2149 281.114 98.9335C282.154 98.6358 283.153 98.2895 284.112 97.8945C285.07 97.4832 285.963 97.0397 286.791 96.5639L290.383 102.407C288.305 103.751 285.901 104.812 283.17 105.589C280.439 106.35 277.536 106.738 274.46 106.752C270.537 106.77 267.093 106.281 264.126 105.285C261.159 104.273 258.679 102.885 256.685 101.12C254.691 99.3387 253.184 97.2459 252.164 94.8417C251.16 92.4211 250.652 89.8192 250.639 87.036ZM311.783 67.9098L319.986 67.8724L338.617 105.947L330.487 105.984L327.406 99.5773L305.116 99.6788L302.192 106.113L294.037 106.15L311.783 67.9098ZM324.325 93.2192L315.995 75.9229L308.041 93.2933L324.325 93.2192ZM344.376 67.7614L352.115 67.7262L352.258 99.0979L374.45 98.9969L374.481 105.784L344.549 105.92L344.376 67.7614ZM416.032 78.4948L419.674 74.0104L396.749 74.1148L396.719 67.5231L434.048 67.3531L412.808 94.2812L409.021 99.0348L432.995 98.9256L433.025 105.517L395.013 105.69L416.032 78.4948ZM438.016 86.305C438.003 83.4242 438.52 80.7851 439.567 78.3877C440.614 75.9903 442.086 73.9328 443.982 72.2152C445.895 70.4812 448.184 69.1361 450.848 68.18C453.53 67.2237 456.498 66.7382 459.753 66.7234C462.992 66.7087 465.956 67.1672 468.646 68.0989C471.336 69.0307 473.637 70.3549 475.549 72.0715C477.477 73.7717 478.976 75.8157 480.045 78.2034C481.114 80.5911 481.655 83.2254 481.668 86.1062C481.681 89.0034 481.164 91.6669 480.117 94.0968C479.07 96.5104 477.59 98.5924 475.678 100.343C473.781 102.093 471.493 103.462 468.812 104.451C466.13 105.424 463.17 105.917 459.932 105.932C456.676 105.947 453.704 105.48 451.014 104.532C448.34 103.568 446.039 102.219 444.111 100.486C442.199 98.7535 440.708 96.6851 439.639 94.2811C438.57 91.8608 438.029 89.2021 438.016 86.305ZM445.755 86.2698C445.764 88.2391 446.122 90.0116 446.829 91.5872C447.552 93.1627 448.543 94.5091 449.802 95.6264C451.076 96.7274 452.569 97.5751 454.281 98.1695C456.009 98.7639 457.882 99.0565 459.9 99.0473C461.918 99.0381 463.781 98.7285 465.487 98.1185C467.209 97.5085 468.695 96.6472 469.943 95.5347C471.191 94.406 472.17 93.0506 472.879 91.4686C473.587 89.8866 473.937 88.1109 473.929 86.1415C473.92 84.1721 473.553 82.4078 472.83 80.8486C472.107 79.2894 471.116 77.9755 469.858 76.907C468.6 75.8222 467.107 74.9989 465.379 74.4371C463.667 73.8752 461.803 73.5989 459.784 73.6081C457.766 73.6173 455.896 73.9106 454.173 74.4881C452.467 75.0656 450.981 75.9024 449.717 76.9987C448.468 78.0786 447.49 79.4014 446.781 80.9672C446.088 82.5328 445.746 84.3004 445.755 86.2698ZM490.126 67.0978L497.865 67.0626L521.701 79.4054L521.644 66.9543L529.384 66.9191L529.557 105.078L521.818 105.113L521.738 87.6084L497.903 75.3389L498.039 105.221L490.3 105.257L490.126 67.0978ZM540.174 66.8699L572.669 66.722L572.7 73.509L547.945 73.6218L547.979 81.2389L569.903 81.139L569.932 87.5111L548.008 87.6109L548.057 98.2309L573.325 98.1158L573.356 104.878L540.348 105.029L540.174 66.8699Z" fill="white"/>
</svg>
